<svg width="73" height="70" viewBox="0 0 83 80" fill="none" xmlns="http://www.w3.org/2000/svg">
<rect width="73" height="70" fill="transperant"/>
<path d="M83 34.791C83 54.0056 68.8152 80 50.0533 80C31.2915 80 0 54.0056 0 34.791C0 15.5765 31.2916 0 50.0534 0C68.8153 0 83 15.5765 83 34.791Z" fill="#2A2A2A"/>
<path d="M15.384 34H13.944V22.12H15.384V34ZM26.834 20.86V34H25.574L25.484 32.434C25.22 32.962 24.812 33.388 24.26 33.712C23.72 34.024 23.102 34.18 22.406 34.18C21.146 34.18 20.144 33.766 19.4 32.938C18.668 32.098 18.302 30.952 18.302 29.5C18.302 28.048 18.668 26.908 19.4 26.08C20.144 25.24 21.146 24.82 22.406 24.82C23.066 24.82 23.654 24.964 24.17 25.252C24.698 25.54 25.106 25.924 25.394 26.404V20.86H26.834ZM22.568 32.92C23.432 32.92 24.116 32.62 24.62 32.02C25.136 31.42 25.394 30.616 25.394 29.608V29.392C25.394 28.384 25.136 27.58 24.62 26.98C24.116 26.38 23.432 26.08 22.568 26.08C21.692 26.08 21.002 26.392 20.498 27.016C19.994 27.628 19.742 28.456 19.742 29.5C19.742 30.544 19.994 31.378 20.498 32.002C21.002 32.614 21.692 32.92 22.568 32.92ZM37.5599 32.956C37.7999 32.956 38.0399 32.926 38.2799 32.866L38.1899 34C37.8539 34.12 37.4939 34.18 37.1099 34.18C36.6419 34.18 36.2699 34.078 35.9939 33.874C35.7299 33.67 35.5619 33.328 35.4899 32.848C35.2139 33.268 34.8059 33.598 34.2659 33.838C33.7379 34.066 33.1799 34.18 32.5919 34.18C31.7039 34.18 30.9719 33.976 30.3959 33.568C29.8199 33.148 29.5319 32.548 29.5319 31.768C29.5319 31.084 29.8319 30.496 30.4319 30.004C31.0319 29.5 31.9019 29.152 33.0419 28.96L35.4359 28.564V28.06C35.4359 27.46 35.2499 26.98 34.8779 26.62C34.5059 26.26 33.9899 26.08 33.3299 26.08C32.7299 26.08 32.2079 26.224 31.7639 26.512C31.3319 26.8 30.9959 27.226 30.7559 27.79L29.6939 27.016C29.9339 26.344 30.3779 25.81 31.0259 25.414C31.6859 25.018 32.4539 24.82 33.3299 24.82C34.3979 24.82 35.2559 25.078 35.9039 25.594C36.5519 26.11 36.8759 26.872 36.8759 27.88V32.308C36.8759 32.524 36.9299 32.686 37.0379 32.794C37.1459 32.902 37.3199 32.956 37.5599 32.956ZM32.6639 32.92C33.4199 32.92 34.0679 32.74 34.6079 32.38C35.1599 32.02 35.4359 31.552 35.4359 30.976V29.734L33.4199 30.112C32.6159 30.256 32.0159 30.466 31.6199 30.742C31.2239 31.006 31.0259 31.348 31.0259 31.768C31.0259 32.14 31.1699 32.428 31.4579 32.632C31.7459 32.824 32.1479 32.92 32.6639 32.92Z" fill="white"/>
<path d="M23.268 39.12V51H21.828V45.654H15.384V51H13.944V39.12H15.384V44.304H21.828V39.12H23.268ZM34.1673 49.956C34.4073 49.956 34.6473 49.926 34.8873 49.866L34.7973 51C34.4613 51.12 34.1013 51.18 33.7173 51.18C33.2493 51.18 32.8773 51.078 32.6013 50.874C32.3373 50.67 32.1693 50.328 32.0973 49.848C31.8213 50.268 31.4133 50.598 30.8733 50.838C30.3453 51.066 29.7873 51.18 29.1993 51.18C28.3113 51.18 27.5793 50.976 27.0033 50.568C26.4273 50.148 26.1393 49.548 26.1393 48.768C26.1393 48.084 26.4393 47.496 27.0393 47.004C27.6393 46.5 28.5093 46.152 29.6493 45.96L32.0433 45.564V45.06C32.0433 44.46 31.8573 43.98 31.4853 43.62C31.1133 43.26 30.5973 43.08 29.9373 43.08C29.3373 43.08 28.8153 43.224 28.3713 43.512C27.9393 43.8 27.6033 44.226 27.3633 44.79L26.3013 44.016C26.5413 43.344 26.9853 42.81 27.6333 42.414C28.2933 42.018 29.0613 41.82 29.9373 41.82C31.0053 41.82 31.8633 42.078 32.5113 42.594C33.1593 43.11 33.4833 43.872 33.4833 44.88V49.308C33.4833 49.524 33.5373 49.686 33.6453 49.794C33.7533 49.902 33.9273 49.956 34.1673 49.956ZM29.2713 49.92C30.0273 49.92 30.6753 49.74 31.2153 49.38C31.7673 49.02 32.0433 48.552 32.0433 47.976V46.734L30.0273 47.112C29.2233 47.256 28.6233 47.466 28.2273 47.742C27.8313 48.006 27.6333 48.348 27.6333 48.768C27.6333 49.14 27.7773 49.428 28.0653 49.632C28.3533 49.824 28.7553 49.92 29.2713 49.92ZM38.3506 48.588C38.3506 49.044 38.4166 49.362 38.5486 49.542C38.6926 49.71 38.9506 49.794 39.3226 49.794C39.5746 49.794 39.7906 49.776 39.9706 49.74C40.1626 49.704 40.3846 49.638 40.6366 49.542L40.4026 50.928C40.0066 51.096 39.5626 51.18 39.0706 51.18C38.3386 51.18 37.7926 50.982 37.4326 50.586C37.0846 50.19 36.9106 49.584 36.9106 48.768V37.86H38.3506V48.588ZM43.8525 48.588C43.8525 49.044 43.9185 49.362 44.0505 49.542C44.1945 49.71 44.4525 49.794 44.8245 49.794C45.0765 49.794 45.2925 49.776 45.4725 49.74C45.6645 49.704 45.8865 49.638 46.1385 49.542L45.9045 50.928C45.5085 51.096 45.0645 51.18 44.5725 51.18C43.8405 51.18 43.2945 50.982 42.9345 50.586C42.5865 50.19 42.4125 49.584 42.4125 48.768V37.86H43.8525V48.588ZM52.3605 41.82C53.3805 41.82 54.2205 42.114 54.8805 42.702C55.5405 43.29 55.8705 44.136 55.8705 45.24V51H54.4305V45.744C54.4305 44.808 54.2265 44.13 53.8185 43.71C53.4225 43.29 52.8885 43.08 52.2165 43.08C51.7365 43.08 51.2865 43.188 50.8665 43.404C50.4465 43.608 50.0985 43.95 49.8225 44.43C49.5585 44.898 49.4265 45.492 49.4265 46.212V51H47.9865V42H49.2465L49.3365 43.404C49.6365 42.864 50.0505 42.468 50.5785 42.216C51.1065 41.952 51.7005 41.82 52.3605 41.82ZM66.853 46.032C66.853 46.368 66.829 46.704 66.781 47.04H59.995C60.079 47.952 60.379 48.66 60.895 49.164C61.423 49.668 62.101 49.92 62.929 49.92C63.589 49.92 64.135 49.806 64.567 49.578C65.011 49.35 65.311 49.02 65.467 48.588L66.673 49.218C66.313 49.854 65.833 50.34 65.233 50.676C64.633 51.012 63.865 51.18 62.929 51.18C61.573 51.18 60.505 50.766 59.725 49.938C58.957 49.11 58.573 47.964 58.573 46.5C58.573 45.036 58.939 43.89 59.671 43.062C60.415 42.234 61.465 41.82 62.821 41.82C63.661 41.82 64.387 42.006 64.999 42.378C65.611 42.75 66.073 43.254 66.385 43.89C66.697 44.526 66.853 45.24 66.853 46.032ZM62.821 43.08C62.029 43.08 61.387 43.314 60.895 43.782C60.415 44.25 60.121 44.91 60.013 45.762H65.467C65.371 44.922 65.095 44.268 64.639 43.8C64.183 43.32 63.577 43.08 62.821 43.08ZM73.838 41.82C74.27 41.82 74.6 41.88 74.828 42L74.54 43.404C74.252 43.248 73.874 43.17 73.406 43.17C73.022 43.17 72.644 43.284 72.272 43.512C71.912 43.728 71.612 44.064 71.372 44.52C71.144 44.964 71.03 45.504 71.03 46.14V51H69.59V42H70.76L70.958 43.476C71.462 42.372 72.422 41.82 73.838 41.82Z" fill="white"/>
</svg>
